<svg width="24" height="25" viewBox="0 0 24 25" fill="none" xmlns="http://www.w3.org/2000/svg">
<path d="M7.616 20.1665C7.168 20.1665 6.78667 20.0092 6.472 19.6945C6.15733 19.3798 6 18.9988 6 18.5515V6.16648H5V5.16648H9V4.39648H15V5.16648H19V6.16648H18V18.5515C18 19.0115 17.846 19.3958 17.538 19.7045C17.23 20.0132 16.8453 20.1672 16.384 20.1665H7.616ZM17 6.16648H7V18.5515C7 18.7308 7.05767 18.8782 7.173 18.9935C7.28833 19.1088 7.436 19.1665 7.616 19.1665H16.385C16.5383 19.1665 16.6793 19.1025 16.808 18.9745C16.9367 18.8465 17.0007 18.7052 17 18.5505V6.16648ZM9.808 17.1665H10.808V8.16648H9.808V17.1665ZM13.192 17.1665H14.192V8.16648H13.192V17.1665Z" fill="#0072CE"/>
</svg>
